<svg xmlns="http://www.w3.org/2000/svg" viewBox="0 0 100 100">
  <rect width="100" height="100" rx="26" fill="#7A2238"/>
  <g transform="translate(31.7, 12) scale(0.41)">
    <path fill-rule="evenodd" fill="#FFFFFF" d="M1.0 102.0L1.0 155.0L1.3 156.9L2.0 158.3L3.0 159.5L4.3 160.4L5.8 160.9L20.0 161.0L21.9 160.7L23.3 160.0L24.5 159.0L25.4 157.7L25.9 155.8L26.0 102.1L26.2 96.4L26.9 89.9L27.9 84.6L29.6 78.5L31.7 72.9L34.7 66.9L36.6 63.8L38.6 61.1L40.7 58.7L42.9 56.5L45.1 54.7L47.9 52.9L51.6 51.1L55.3 50.2L57.5 50.0L64.4 50.0L70.1 50.4L72.0 49.9L73.7 48.8L75.0 46.8L79.8 33.3L79.9 31.8L79.6 30.3L79.2 29.2L78.2 27.9L77.0 27.0L75.6 26.3L71.8 25.6L67.8 25.1L56.5 25.0L52.9 25.3L49.2 25.9L43.1 27.6L39.7 29.0L36.6 30.5L30.9 34.1L28.0 36.4L25.0 38.9L19.8 44.6L15.1 51.1L11.0 58.1L9.2 61.8L7.2 66.7L4.6 74.8L2.7 83.4L1.4 93.2L1.0 102.0Z"/>
  </g>
</svg>
